# xmcd
#
# Track frame offsets:
#	150
#	19945
#	45075
#	61394
#	78560
#	92595
#	105783
#	119996
#	133968
#	152045
#	171830
#	193582
#	213859
#	229042
#	247648
#	260127
#	279655
#	285330
#	299749
#
# Disc length: 4237 seconds
#
# Revision: 0
# Processed by: cddbd v1.4PL0 Copyright (c) Steve Scherf et al.
# Submitted via: EasyCDDAExtractor 5.0.4.1
#
DISCID=10108b13
DTITLE=Various Artist - Oi Mpalantes Ti Zois Mas [CD2)
DYEAR=2003
DGENRE=Blues
TTITLE0=Giannis Kotsiras - I Proti Mas Fora
TTITLE1=Pux Lax - Oi Palies Agapes Pane ston Paradiso
TTITLE2=Haris Alexiou - Kitrini Poli
TTITLE3=Kostas Karalis - Spasmeno Karavi
TTITLE4=Afroditi Manou - Htan Ta Logia Sou Fotia
TTITLE5=Arleta - Tsai Giasemiou
TTITLE6=Dionysis 8eodosis - Oso Krataei Enas Kafes
TTITLE7=Aleka Kanelidou - Nuxta Einai 8a Perasei
TTITLE8=Fatme - Psemata
TTITLE9=Nikolaos Aoimas - Mpagasa
TTITLE10=Paulos Sidiropoulos - Pou Na Gurizeis
TTITLE11=Afroditi Manou - Me To kalokairi Malosa
TTITLE12=La8repivates - Sto Grafio
TTITLE13=Miltos Pasxalidis - Ta Blouz Tis Agrias Niotis
TTITLE14=Dimitra Galani - Kanonika
TTITLE15=Maria farantouri - Tora Xero
TTITLE16=Vasilis Papakostantinou - Agapao ki Adiaforo
TTITLE17=Xaris Alexiou - To Gramma
TTITLE18=Eleni Dimou-La8repivates - Anysixo
EXTD=
EXTT0=
EXTT1=
EXTT2=
EXTT3=
EXTT4=
EXTT5=
EXTT6=
EXTT7=
EXTT8=
EXTT9=
EXTT10=
EXTT11=
EXTT12=
EXTT13=
EXTT14=
EXTT15=
EXTT16=
EXTT17=
EXTT18=
PLAYORDER=
